{
  "accessors": [
    {
      "bufferView": 2,
      "componentType": 5126,
      "count": 618,
      "max": [
        53.766273498535156,
        49.877010345458984,
        53.76626205444336
      ],
      "min": [
        -53.76626205444336,
        -0.3679080903530121,
        -53.766273498535156
      ],
      "type": "VEC3"
    },
    {
      "bufferView": 2,
      "byteOffset": 7416,
      "componentType": 5126,
      "count": 618,
      "max": [
        0.870795488357544,
        0.9999289512634277,
        0.8693583607673645
      ],
      "min": [
        -0.8722077012062073,
        0.48913565278053284,
        -0.8693583607673645
      ],
      "type": "VEC3"
    },
    {
      "bufferView": 3,
      "componentType": 5126,
      "count": 618,
      "max": [
        0.9419967532157898,
        0.8689917325973511,
        0.9485610127449036,
        1.0
      ],
      "min": [
        -0.9283683896064758,
        -0.882620096206665,
        -0.9573397040367126,
        1.0
      ],
      "type": "VEC4"
    },
    {
      "bufferView": 1,
      "componentType": 5126,
      "count": 618,
      "max": [
        0.9759977459907532,
        0.9759977459907532
      ],
      "min": [
        0.024002254009246826,
        0.024002254009246826
      ],
      "type": "VEC2"
    },
    {
      "bufferView": 1,
      "byteOffset": 4944,
      "componentType": 5126,
      "count": 618,
      "max": [
        0.9498645067214966,
        0.9498645067214966
      ],
      "min": [
        0.09493525326251984,
        0.09493525326251984
      ],
      "type": "VEC2"
    },
    {
      "bufferView": 1,
      "byteOffset": 9888,
      "componentType": 5126,
      "count": 618,
      "max": [
        0.9759977459907532,
        0.9759977459907532
      ],
      "min": [
        0.024002254009246826,
        0.024002254009246826
      ],
      "type": "VEC2"
    },
    {
      "bufferView": 0,
      "componentType": 5125,
      "count": 1488,
      "type": "SCALAR"
    }
  ],
  "asset": {
    "extras": {
      "author": "Natural_Disbuster (https://sketchfab.com/lemedesign)",
      "license": "CC-BY-4.0 (http://creativecommons.org/licenses/by/4.0/)",
      "source": "https://sketchfab.com/3d-models/low-poly-stylized-bushshrub-d4ec3f99c6274465ab32f87ac05458e7",
      "title": "Low Poly Stylized Bush/Shrub"
    },
    "generator": "Sketchfab-12.65.0",
    "version": "2.0"
  },
  "bufferViews": [
    {
      "buffer": 0,
      "byteLength": 5952,
      "name": "floatBufferViews",
      "target": 34963
    },
    {
      "buffer": 0,
      "byteLength": 14832,
      "byteOffset": 5952,
      "byteStride": 8,
      "name": "floatBufferViews",
      "target": 34962
    },
    {
      "buffer": 0,
      "byteLength": 14832,
      "byteOffset": 20784,
      "byteStride": 12,
      "name": "floatBufferViews",
      "target": 34962
    },
    {
      "buffer": 0,
      "byteLength": 9888,
      "byteOffset": 35616,
      "byteStride": 16,
      "name": "floatBufferViews",
      "target": 34962
    }
  ],
  "buffers": [
    {
      "byteLength": 45504,
      "uri": "scene.bin"
    }
  ],
  "images": [
    {
      "uri": "textures/cloveyBushy_matsy_baseColor.png"
    },
    {
      "uri": "textures/cloveyBushy_matsy_normal.png"
    }
  ],
  "materials": [
    {
      "alphaCutoff": 0.5165960242400981,
      "alphaMode": "MASK",
      "doubleSided": true,
      "emissiveFactor": [
        0.000968903,
        0.000762102,
        2.29779e-05
      ],
      "name": "cloveyBushy_matsy",
      "normalTexture": {
        "index": 1
      },
      "pbrMetallicRoughness": {
        "baseColorTexture": {
          "index": 0
        },
        "metallicFactor": 0.0,
        "roughnessFactor": 0.6
      }
    }
  ],
  "meshes": [
    {
      "name": "cloveyBush_03_cloveyBushy_matsy_0",
      "primitives": [
        {
          "attributes": {
            "NORMAL": 1,
            "POSITION": 0,
            "TANGENT": 2,
            "TEXCOORD_0": 3,
            "TEXCOORD_1": 4,
            "TEXCOORD_2": 5
          },
          "indices": 6,
          "material": 0,
          "mode": 4
        }
      ]
    }
  ],
  "nodes": [
    {
      "children": [
        1
      ],
      "matrix": [
        1.0,
        0.0,
        0.0,
        0.0,
        0.0,
        2.220446049250313e-16,
        -1.0,
        0.0,
        0.0,
        1.0,
        2.220446049250313e-16,
        0.0,
        0.0,
        0.0,
        0.0,
        1.0
      ],
      "name": "Sketchfab_model"
    },
    {
      "children": [
        2
      ],
      "matrix": [
        0.009999999776482582,
        0.0,
        0.0,
        0.0,
        0.0,
        0.0,
        0.009999999776482582,
        0.0,
        0.0,
        -0.009999999776482582,
        0.0,
        0.0,
        0.0,
        0.0,
        0.0,
        1.0
      ],
      "name": "cloveyBush-03.fbx"
    },
    {
      "children": [
        3
      ],
      "name": "RootNode"
    },
    {
      "children": [
        4
      ],
      "name": "cloveyBush_03"
    },
    {
      "mesh": 0,
      "name": "cloveyBush_03_cloveyBushy_matsy_0"
    }
  ],
  "samplers": [
    {
      "magFilter": 9729,
      "minFilter": 9987,
      "wrapS": 10497,
      "wrapT": 10497
    }
  ],
  "scene": 0,
  "scenes": [
    {
      "name": "Sketchfab_Scene",
      "nodes": [
        0
      ]
    }
  ],
  "textures": [
    {
      "sampler": 0,
      "source": 0
    },
    {
      "sampler": 0,
      "source": 1
    }
  ]
}
