{
  "accessors": [
    {
      "bufferView": 2,
      "componentType": 5126,
      "count": 576,
      "max": [
        184.6221466064453,
        278.3863830566406,
        184.62216186523438
      ],
      "min": [
        -184.6221466064453,
        2.3584728240966797,
        -184.62216186523438
      ],
      "type": "VEC3"
    },
    {
      "bufferView": 2,
      "byteOffset": 6912,
      "componentType": 5126,
      "count": 576,
      "max": [
        0.9986447691917419,
        0.05204705521464348,
        0.9986447691917419
      ],
      "min": [
        -0.9986447691917419,
        -1.0,
        -0.9986447691917419
      ],
      "type": "VEC3"
    },
    {
      "bufferView": 1,
      "componentType": 5126,
      "count": 576,
      "max": [
        0.9132727980613708,
        0.9980080723762512
      ],
      "min": [
        0.001822899910621345,
        0.00199203216470778
      ],
      "type": "VEC2"
    },
    {
      "bufferView": 0,
      "componentType": 5125,
      "count": 864,
      "type": "SCALAR"
    },
    {
      "bufferView": 2,
      "byteOffset": 13824,
      "componentType": 5126,
      "count": 576,
      "max": [
        170.5786895751953,
        343.1803283691406,
        170.5790252685547
      ],
      "min": [
        -170.5786895751953,
        278.38629150390625,
        -170.5789794921875
      ],
      "type": "VEC3"
    },
    {
      "bufferView": 2,
      "byteOffset": 20736,
      "componentType": 5126,
      "count": 576,
      "max": [
        0.9959709048271179,
        1.0,
        0.9959710240364075
      ],
      "min": [
        -0.9959709048271179,
        0.08967608958482742,
        -0.9959710836410522
      ],
      "type": "VEC3"
    },
    {
      "bufferView": 1,
      "byteOffset": 4608,
      "componentType": 5126,
      "count": 576,
      "max": [
        0.9392362833023071,
        0.9980080127716064
      ],
      "min": [
        0.0018747232388705015,
        0.00199203216470778
      ],
      "type": "VEC2"
    },
    {
      "bufferView": 0,
      "byteOffset": 3456,
      "componentType": 5125,
      "count": 864,
      "type": "SCALAR"
    },
    {
      "bufferView": 2,
      "byteOffset": 27648,
      "componentType": 5126,
      "count": 887,
      "max": [
        241.69940185546875,
        23.58083152770996,
        241.69940185546875
      ],
      "min": [
        -241.69940185546875,
        -19.440855026245117,
        -241.69940185546875
      ],
      "type": "VEC3"
    },
    {
      "bufferView": 2,
      "byteOffset": 38292,
      "componentType": 5126,
      "count": 887,
      "max": [
        1.0,
        1.0,
        1.0
      ],
      "min": [
        -1.0,
        -1.0,
        -1.0
      ],
      "type": "VEC3"
    },
    {
      "bufferView": 1,
      "byteOffset": 9216,
      "componentType": 5126,
      "count": 887,
      "max": [
        0.9026827216148376,
        0.9980080127716064
      ],
      "min": [
        0.001801762031391263,
        0.0019920319318771362
      ],
      "type": "VEC2"
    },
    {
      "bufferView": 0,
      "byteOffset": 6912,
      "componentType": 5125,
      "count": 1863,
      "type": "SCALAR"
    }
  ],
  "asset": {
    "extras": {
      "author": "Vorg (https://sketchfab.com/darktps)",
      "license": "CC-BY-4.0 (http://creativecommons.org/licenses/by/4.0/)",
      "source": "https://sketchfab.com/3d-models/dungeon-spike-trap-224e31561a694a1f93ae4915a205f5f0",
      "title": "Dungeon Spike Trap"
    },
    "generator": "Sketchfab-12.68.0",
    "version": "2.0"
  },
  "bufferViews": [
    {
      "buffer": 0,
      "byteLength": 14364,
      "name": "floatBufferViews",
      "target": 34963
    },
    {
      "buffer": 0,
      "byteLength": 16312,
      "byteOffset": 14364,
      "byteStride": 8,
      "name": "floatBufferViews",
      "target": 34962
    },
    {
      "buffer": 0,
      "byteLength": 48936,
      "byteOffset": 30676,
      "byteStride": 12,
      "name": "floatBufferViews",
      "target": 34962
    }
  ],
  "buffers": [
    {
      "byteLength": 79612,
      "uri": "scene.bin"
    }
  ],
  "materials": [
    {
      "doubleSided": true,
      "name": "lambert1",
      "pbrMetallicRoughness": {
        "baseColorFactor": [
          0.5,
          0.5,
          0.5,
          1.0
        ],
        "metallicFactor": 0.0,
        "roughnessFactor": 0.6
      }
    }
  ],
  "meshes": [
    {
      "name": "Spikes_lambert1_0",
      "primitives": [
        {
          "attributes": {
            "NORMAL": 1,
            "POSITION": 0,
            "TEXCOORD_0": 2
          },
          "indices": 3,
          "material": 0,
          "mode": 4
        }
      ]
    },
    {
      "name": "SpikeTip_lambert1_0",
      "primitives": [
        {
          "attributes": {
            "NORMAL": 5,
            "POSITION": 4,
            "TEXCOORD_0": 6
          },
          "indices": 7,
          "material": 0,
          "mode": 4
        }
      ]
    },
    {
      "name": "Base_lambert1_0",
      "primitives": [
        {
          "attributes": {
            "NORMAL": 9,
            "POSITION": 8,
            "TEXCOORD_0": 10
          },
          "indices": 11,
          "material": 0,
          "mode": 4
        }
      ]
    }
  ],
  "nodes": [
    {
      "children": [
        1
      ],
      "matrix": [
        1.0,
        0.0,
        0.0,
        0.0,
        0.0,
        2.220446049250313e-16,
        -1.0,
        0.0,
        0.0,
        1.0,
        2.220446049250313e-16,
        0.0,
        0.0,
        0.0,
        0.0,
        1.0
      ],
      "name": "Sketchfab_model"
    },
    {
      "children": [
        2
      ],
      "matrix": [
        1.0,
        0.0,
        0.0,
        0.0,
        0.0,
        0.0,
        1.0,
        0.0,
        0.0,
        -1.0,
        0.0,
        0.0,
        0.0,
        0.0,
        0.0,
        1.0
      ],
      "name": "a696b5043f874544b7c56665af0adffb.fbx"
    },
    {
      "children": [
        3
      ],
      "name": "RootNode"
    },
    {
      "children": [
        4,
        8
      ],
      "name": "SpikeTrap"
    },
    {
      "children": [
        5,
        6
      ],
      "name": "Spikes"
    },
    {
      "mesh": 0,
      "name": "Spikes_lambert1_0"
    },
    {
      "children": [
        7
      ],
      "name": "SpikeTip"
    },
    {
      "mesh": 1,
      "name": "SpikeTip_lambert1_0"
    },
    {
      "children": [
        9
      ],
      "name": "Base"
    },
    {
      "mesh": 2,
      "name": "Base_lambert1_0"
    }
  ],
  "scene": 0,
  "scenes": [
    {
      "name": "Sketchfab_Scene",
      "nodes": [
        0
      ]
    }
  ]
}
